<?xml version="1.0" encoding="UTF-8"?><svg id="logos" xmlns="http://www.w3.org/2000/svg" viewBox="0 0 192 192"><defs><style>.cls-1{fill:#f1f1f1;}.cls-2{fill:#111827;}</style></defs><path class="cls-2" d="m0,0v192h192V0H0Zm151.33,148h-.48s-18.31,0-18.31,0h0s-.07,0-.07,0l-41.79-72.39-41.79,72.39h-18.87l51.23-88.73h0s9.15-15.85,9.15-15.85h.57l9.15,15.85h0l42.07,72.87h17.83l-8.92,15.44.24.42Z"/><polygon class="cls-1" points="90.38 43.42 30 148 48.87 148 100.1 59.27 90.95 43.42 90.38 43.42"/><polygon class="cls-1" points="81.23 59.27 132.46 148 151.33 148 90.95 43.42 90.38 43.42 81.23 59.27"/><polygon class="cls-1" points="160 132.14 141.69 132.14 132.53 148 150.84 148 160 132.14"/></svg>